<?xml version="1.0" encoding="UTF-8"?>
<svg width="140px" height="27px" viewBox="0 0 140 27" version="1.1" xmlns="http://www.w3.org/2000/svg" xmlns:xlink="http://www.w3.org/1999/xlink">
    <!-- Generator: Sketch 47.1 (45422) - http://www.bohemiancoding.com/sketch -->
    <title>odinlogo</title>
    <desc>Created with Sketch.</desc>
    <defs>
        <polygon id="path-1" points="0 27 140 27 140 0 0 0"></polygon>
    </defs>
    <g id="Page-1" stroke="none" stroke-width="1" fill="none" fill-rule="evenodd">
        <g id="VPN-01-Copy" transform="translate(-43.000000, -38.000000)">
            <g id="odinlogo" transform="translate(43.000000, 38.000000)">
                <path d="M39.1427765,13.9717836 C39.1427765,18.1679161 41.3967976,20.8156281 44.9668874,20.8156281 C48.5369772,20.8156281 50.7781898,18.1679161 50.7781898,13.9717836 C50.7781898,9.76311842 48.5369772,7.11540638 44.9668874,7.11540638 C41.3967976,7.11540638 39.1427765,9.76311842 39.1427765,13.9717836 Z M53.7748344,13.9717836 C53.7748344,19.7040597 50.3741898,23.2758621 44.9668874,23.2758621 C39.5467765,23.2758621 36.1589404,19.7040597 36.1589404,13.9717836 C36.1589404,8.23950747 39.5467765,4.65517241 44.9668874,4.65517241 C50.3741898,4.65517241 53.7748344,8.23950747 53.7748344,13.9717836 Z" id="Fill-1" fill="#FFFFFF"></path>
                <path d="M58.4570319,16.1450317 C58.4570319,19.0410171 59.9218491,20.907354 62.163815,20.907354 C64.3802152,20.907354 65.8705982,19.0025305 65.8705982,16.1450317 C65.8705982,13.3004496 64.3802152,11.3827093 62.163815,11.3827093 C59.934632,11.3827093 58.4570319,13.2616994 58.4570319,16.1450317 M55.6291391,16.1321149 C55.6291391,11.8332135 57.9984124,9.0142013 61.4377979,9.0142013 C63.4248883,9.0142013 65.0044908,9.92812644 65.7941616,11.4725993 L65.8578153,11.4725993 L65.8578153,3.72413793 L68.6092715,3.72413793 L68.6092715,23.1343052 L65.9342519,23.1343052 L65.9342519,20.7657971 L65.8833811,20.7657971 C65.0681445,22.3490202 63.488542,23.2758621 61.4631029,23.2758621 C57.9984124,23.2758621 55.6291391,20.4568498 55.6291391,16.1321149" id="Fill-3" fill="#FFFFFF"></path>
                <mask id="mask-2" fill="white">
                    <use xlink:href="#path-1"></use>
                </mask>
                <g id="Clip-6"></g>
                <path d="M71.6535574,23.2758621 L74.8218573,23.2758621 L74.8218573,9.71305733 L71.6535574,9.71305733 L71.6535574,23.2758621 Z M71.3907285,6.21614696 C71.3907285,5.32938656 72.2228707,4.65517241 73.2448836,4.65517241 C74.2668965,4.65517241 75.0993377,5.32938656 75.0993377,6.21614696 C75.0993377,7.07784174 74.2668965,7.77737728 73.2448836,7.77737728 C72.2228707,7.77737728 71.3907285,7.07784174 71.3907285,6.21614696 L71.3907285,6.21614696 Z" id="Fill-5" fill="#FFFFFF" mask="url(#mask-2)"></path>
                <path d="M77.8807947,9.46299051 L80.5041789,9.46299051 L80.5041789,11.790707 L80.5550529,11.790707 C81.3913588,10.16266 82.8996685,9.31034483 85.0288484,9.31034483 C88.0706451,9.31034483 89.9337748,11.2436832 89.9337748,14.4234543 L89.9337748,23.2758621 L87.1834652,23.2758621 L87.1834652,14.9449503 C87.1834652,12.8462024 86.0935681,11.6760925 84.0783355,11.6760925 C81.9997701,11.6760925 80.6311043,13.1262265 80.6311043,15.3010367 L80.6311043,23.2758621 L77.8807947,23.2758621 L77.8807947,9.46299051 Z" id="Fill-7" fill="#FFFFFF" mask="url(#mask-2)"></path>
                <polygon id="Fill-8" fill="#FFFFFF" mask="url(#mask-2)" points="96.6746808 23.2758621 89.9337748 4.65517241 93.1144337 4.65517241 98.2584425 20.0239342 98.3369872 20.0239342 103.494131 4.65517241 106.622517 4.65517241 99.8816106 23.2758621"></polygon>
                <path d="M111.269933,14.4881249 L114.786221,14.4881249 C117.204978,14.4881249 118.601534,13.133177 118.601534,10.7845477 C118.601534,8.43618274 117.21749,7.09392011 114.786221,7.09392011 L111.269933,7.09392011 L111.269933,14.4881249 Z M115.521654,4.65517241 C119.012917,4.65517241 121.456954,7.1457184 121.456954,10.7715982 C121.456954,14.4106918 118.963122,16.9141873 115.434577,16.9141873 L111.269933,16.9141873 L111.269933,23.2758621 L108.476821,23.2758621 L108.476821,4.65517241 L115.521654,4.65517241 Z" id="Fill-9" fill="#FFFFFF" mask="url(#mask-2)"></path>
                <polygon id="Fill-10" fill="#FFFFFF" mask="url(#mask-2)" points="125.165563 23.2758621 125.165563 4.65517241 127.724052 4.65517241 137.151641 18.3851528 137.252308 18.3851528 137.252308 4.65517241 140 4.65517241 140 23.2758621 137.4539 23.2758621 128.026569 9.55883123 127.913254 9.55883123 127.913254 23.2758621"></polygon>
                <polygon id="Fill-11" fill="#FFFFFF" mask="url(#mask-2)" points="17.6754064 11.1724138 16.6887417 9.99548769 19.4106864 7.44827586 20.397351 8.62520196"></polygon>
                <polygon id="Fill-12" fill="#FFFFFF" mask="url(#mask-2)" points="21.8498936 16.7586207 18.5430464 15.5925184 18.945045 13.9655172 22.2516556 15.1316196"></polygon>
                <polygon id="Fill-13" fill="#FFFFFF" mask="url(#mask-2)" points="20.7632209 12.1034483 20.397351 10.639699 25.594395 9.31034483 25.9602649 10.7743458"></polygon>
                <polygon id="Fill-14" fill="#FFFFFF" mask="url(#mask-2)" points="19.8773057 24.2068966 16.6887417 19.4093606 18.1359393 18.6206897 21.3245033 23.4182256"></polygon>
                <path d="M27.3102235,16.7586207 L25.6260678,16.3699662 C25.9215286,15.4117708 26.071438,14.4179007 26.071438,13.4157399 C26.071438,11.8721761 25.7222306,10.3753413 25.0331126,8.96668862 L26.6382462,8.37931034 C27.4188787,9.97462773 27.8145695,11.6691814 27.8145695,13.4157399 C27.8145695,14.5487921 27.6449047,15.6735536 27.3102235,16.7586207" id="Fill-15" fill="#FFFFFF" mask="url(#mask-2)"></path>
                <path d="M13.4955751,27 C6.05414119,27 0,20.9438738 0,13.5 C0,6.05612621 6.05414119,0 13.4955751,0 C18.2473278,0 22.5606708,2.42737864 25.0331126,6.4931068 L23.6898443,7.31070874 C21.5048714,3.71787379 17.6938782,1.57281553 13.4955751,1.57281553 C6.9210026,1.57281553 1.57230001,6.92327184 1.57230001,13.5 C1.57230001,20.0767282 6.9210026,25.4271845 13.4955751,25.4271845 C14.2114957,25.4271845 14.9284645,25.3634854 15.6268278,25.2373981 L15.905911,26.7853107 C15.1155682,26.9279126 14.3047855,27 13.4955751,27" id="Fill-16" fill="#FFFFFF" mask="url(#mask-2)"></path>
                <path d="M18.0822431,27 L17.615894,25.4403404 C20.7202662,24.3496444 23.257205,21.8640821 24.5763426,18.6206897 L25.9602649,19.2825953 C24.4674438,22.9525917 21.5959941,25.7655541 18.0822431,27" id="Fill-17" fill="#FFFFFF" mask="url(#mask-2)"></path>
                <path d="M20.4409227,20.4827586 L19.4701987,19.3554138 C20.9491614,17.8282682 21.7637583,15.762115 21.7637583,13.5373845 C21.7637583,12.8666595 21.6878173,12.1995502 21.537822,11.555427 L22.9090051,11.1724138 C23.0882448,11.9417976 23.1788079,12.7375249 23.1788079,13.5373845 C23.1788079,16.1934245 22.206433,18.6598949 20.4409227,20.4827586" id="Fill-18" fill="#FFFFFF" mask="url(#mask-2)"></path>
                <path d="M20.9048821,10.2413793 C20.1375314,8.62510296 18.8823253,7.29667904 17.3710834,6.50093186 L16.6887417,6.14145675 L18.6378931,1.86206897 L19.996018,2.58347015 L18.7029741,5.4222342 C20.2074052,6.38818739 21.4515122,7.81083737 22.2516556,9.49574079 L20.9048821,10.2413793 Z" id="Fill-19" fill="#FFFFFF" mask="url(#mask-2)"></path>
                <path d="M13.5541546,23.2758621 C8.12511572,23.2758621 3.70860927,18.8903495 3.70860927,13.5 C3.70860927,8.10965051 8.12511572,3.72413793 13.5541546,3.72413793 C14.2208272,3.72413793 14.8880328,3.79107414 15.5373858,3.92283001 L15.2171058,5.47797256 C14.6730029,5.36764687 14.1134455,5.31155802 13.5541546,5.31155802 C9.00681828,5.31155802 5.30734464,8.98458355 5.30734464,13.5 C5.30734464,18.0151519 9.00681828,21.688442 13.5541546,21.688442 C14.4534432,21.688442 15.3367445,21.5458387 16.179811,21.2648654 L16.6887417,22.7697396 C15.681272,23.105479 14.6266396,23.2758621 13.5541546,23.2758621" id="Fill-20" fill="#FFFFFF" mask="url(#mask-2)"></path>
                <path d="M13.4437086,9.0692734 C11.0107823,9.0692734 9.03145695,11.0566164 9.03145695,13.4997298 C9.03145695,15.9428433 11.0107823,17.9307266 13.4437086,17.9307266 C15.8766349,17.9307266 17.8559603,15.9428433 17.8559603,13.4997298 C17.8559603,11.0566164 15.8766349,9.0692734 13.4437086,9.0692734 M13.4437086,19.5517241 C10.1205298,19.5517241 7.41721854,16.8368234 7.41721854,13.4997298 C7.41721854,10.1631766 10.1205298,7.44827586 13.4437086,7.44827586 C16.7668874,7.44827586 19.4701987,10.1631766 19.4701987,13.4997298 C19.4701987,16.8368234 16.7668874,19.5517241 13.4437086,19.5517241" id="Fill-21" fill="#FFFFFF" mask="url(#mask-2)"></path>
            </g>
        </g>
    </g>
</svg>