<?xml version="1.0" encoding="UTF-8"?>
<svg width="140px" height="27px" viewBox="0 0 140 27" version="1.1" xmlns="http://www.w3.org/2000/svg" xmlns:xlink="http://www.w3.org/1999/xlink">
    <!-- Generator: Sketch 47.1 (45422) - http://www.bohemiancoding.com/sketch -->
    <title>odinvpn-logo</title>
    <desc>Created with Sketch.</desc>
    <defs>
        <polygon id="path-1" points="0 27 139.915631 27 139.915631 0 0 0"></polygon>
        <polygon id="path-3" points="0 27 139.915631 27 139.915631 0 0 0"></polygon>
        <polygon id="path-5" points="0 27 139.915631 27 139.915631 0 0 0"></polygon>
        <polygon id="path-7" points="0 27 139.915631 27 139.915631 0 0 0"></polygon>
        <polygon id="path-9" points="0 27 139.915631 27 139.915631 0 0 0"></polygon>
        <polygon id="path-11" points="0 27 139.915631 27 139.915631 0 0 0"></polygon>
        <polygon id="path-13" points="0 27 139.915631 27 139.915631 0 0 0"></polygon>
        <polygon id="path-15" points="0 27 139.915631 27 139.915631 0 0 0"></polygon>
        <polygon id="path-17" points="0 27 139.915631 27 139.915631 0 0 0"></polygon>
        <polygon id="path-19" points="0 27 139.915631 27 139.915631 0 0 0"></polygon>
        <polygon id="path-21" points="0 27 139.915631 27 139.915631 0 0 0"></polygon>
        <polygon id="path-23" points="0 27 139.915631 27 139.915631 0 0 0"></polygon>
        <polygon id="path-25" points="0 27 139.915631 27 139.915631 0 0 0"></polygon>
        <polygon id="path-27" points="0 27 139.915631 27 139.915631 0 0 0"></polygon>
        <polygon id="path-29" points="0 27 139.915631 27 139.915631 0 0 0"></polygon>
        <polygon id="path-31" points="0 27 139.915631 27 139.915631 0 0 0"></polygon>
    </defs>
    <g id="Page-1" stroke="none" stroke-width="1" fill="none" fill-rule="evenodd">
        <g id="VPN-01" transform="translate(-43.000000, -38.000000)">
            <g id="odinvpn-logo" transform="translate(43.000000, 38.000000)">
                <path d="M39.8795141,13.506394 C39.8795141,17.7880032 42.0547292,20.4896502 45.5,20.4896502 C48.9452708,20.4896502 51.1081253,17.7880032 51.1081253,13.506394 C51.1081253,9.21199676 48.9452708,6.51034985 45.5,6.51034985 C42.0547292,6.51034985 39.8795141,9.21199676 39.8795141,13.506394 Z M54,13.506394 C54,19.3554386 50.7182501,23 45.5,23 C40.2693892,23 37,19.3554386 37,13.506394 C37,7.65734929 40.2693892,4 45.5,4 C50.7182501,4 54,7.65734929 54,13.506394 Z" id="Fill-1" fill="#FFFFFF" fill-rule="nonzero"></path>
                <path d="M57.8322212,16.0703923 C57.8322212,18.8846569 59.2992805,20.6983282 61.544678,20.6983282 C63.7644706,20.6983282 65.2571348,18.8472563 65.2571348,16.0703923 C65.2571348,13.3060806 63.7644706,11.4424565 61.544678,11.4424565 C59.312083,11.4424565 57.8322212,13.2684239 57.8322212,16.0703923 M55,16.0578401 C55,11.8802481 57.3728998,9.14078468 60.8175496,9.14078468 C62.8076815,9.14078468 64.3897017,10.02892 65.1805812,11.5298099 L65.2443323,11.5298099 L65.2443323,4 L68,4 L68,22.8624376 L65.3208859,22.8624376 L65.3208859,20.5607658 L65.2699373,20.5607658 C64.4534528,22.0993124 62.8714326,23 60.8428933,23 C57.3728998,23 55,20.2605366 55,16.0578401" id="Fill-3" fill="#FFFFFF" fill-rule="nonzero"></path>
                <g id="Fill-5-Clipped">
                    <mask id="mask-2" fill="white">
                        <use xlink:href="#path-1"></use>
                    </mask>
                    <g id="path-1"></g>
                    <path d="M71.9423352,23.380165 L74.7360075,23.380165 L74.7360075,9.4798835 L71.9423352,9.4798835 L71.9423352,23.380165 Z M71.7105838,5.89596117 C71.7105838,4.98713592 72.4443315,4.29614563 73.3454991,4.29614563 C74.2466667,4.29614563 74.980678,4.98713592 74.980678,5.89596117 C74.980678,6.77909709 74.2466667,7.49603883 73.3454991,7.49603883 C72.4443315,7.49603883 71.7105838,6.77909709 71.7105838,5.89596117 L71.7105838,5.89596117 Z" id="Fill-5" fill="#FFFFFF" fill-rule="nonzero" mask="url(#mask-2)"></path>
                </g>
                <g id="Fill-7-Clipped">
                    <mask id="mask-4" fill="white">
                        <use xlink:href="#path-3"></use>
                    </mask>
                    <g id="path-1"></g>
                    <path d="M77.6969416,9.47990971 L80.3616874,9.47990971 L80.3616874,11.8223563 L80.4133635,11.8223563 C81.262855,10.1840068 82.7949454,9.32629806 84.9576949,9.32629806 C88.0474501,9.32629806 89.9399548,11.2718709 89.9399548,14.4717641 L89.9399548,23.3801913 L87.1462825,23.3801913 L87.1462825,14.9965602 C87.1462825,12.8845311 86.0392015,11.7070165 83.9921959,11.7070165 C81.8808588,11.7070165 80.4906139,13.1663272 80.4906139,15.3549 L80.4906139,23.3801913 L77.6969416,23.3801913 L77.6969416,9.47990971 Z" id="Fill-7" fill="#FFFFFF" fill-rule="nonzero" mask="url(#mask-4)"></path>
                </g>
                <g id="Fill-8-Clipped">
                    <mask id="mask-6" fill="white">
                        <use xlink:href="#path-5"></use>
                    </mask>
                    <g id="path-1"></g>
                    <polygon id="Fill-8" fill="#FFFFFF" fill-rule="nonzero" mask="url(#mask-6)" points="97.0074765 23.3802699 90.377646 4.91043495 93.5058945 4.91043495 98.5651412 20.1546874 98.6423917 20.1546874 103.714557 4.91043495 106.791394 4.91043495 100.161563 23.3802699"></polygon>
                </g>
                <g id="Fill-9-Clipped">
                    <mask id="mask-8" fill="white">
                        <use xlink:href="#path-7"></use>
                    </mask>
                    <g id="path-1"></g>
                    <path d="M111.722136,14.6637524 L115.352644,14.6637524 C117.84997,14.6637524 119.291891,13.3197816 119.291891,10.9901796 C119.291891,8.66083981 117.862889,7.32945146 115.352644,7.32945146 L111.722136,7.32945146 L111.722136,14.6637524 Z M116.111966,4.91046117 C119.716637,4.91046117 122.240064,7.3808301 122.240064,10.977335 C122.240064,14.5869466 119.665224,17.0701602 116.02206,17.0701602 L111.722136,17.0701602 L111.722136,23.3802961 L108.838294,23.3802961 L108.838294,4.91046117 L116.111966,4.91046117 Z" id="Fill-9" fill="#FFFFFF" fill-rule="nonzero" mask="url(#mask-8)"></path>
                </g>
                <g id="Fill-10-Clipped">
                    <mask id="mask-10" fill="white">
                        <use xlink:href="#path-9"></use>
                    </mask>
                    <g id="path-1"></g>
                    <polygon id="Fill-10" fill="#FFFFFF" fill-rule="nonzero" mask="url(#mask-10)" points="124.763202 23.3802699 124.763202 4.91043495 127.376535 4.91043495 137.006215 18.5291825 137.10904 18.5291825 137.10904 4.91043495 139.915631 4.91043495 139.915631 23.3802699 137.314953 23.3802699 127.685537 9.77436699 127.569793 9.77436699 127.569793 23.3802699"></polygon>
                </g>
                <g id="Fill-11-Clipped">
                    <mask id="mask-12" fill="white">
                        <use xlink:href="#path-11"></use>
                    </mask>
                    <g id="path-1"></g>
                    <polygon id="Fill-11" fill="#FFFFFF" fill-rule="nonzero" mask="url(#mask-12)" points="17.8693522 10.7713748 16.820275 9.59386019 19.7143992 7.04537476 20.7634765 8.22288932"></polygon>
                </g>
                <g id="Fill-12-Clipped">
                    <mask id="mask-14" fill="white">
                        <use xlink:href="#path-13"></use>
                    </mask>
                    <g id="path-1"></g>
                    <polygon id="Fill-12" fill="#FFFFFF" fill-rule="nonzero" mask="url(#mask-14)" points="21.9370508 16.7720854 18.2522298 15.6910369 18.700177 14.1827068 22.3847345 15.2637553"></polygon>
                </g>
                <g id="Fill-13-Clipped">
                    <mask id="mask-16" fill="white">
                        <use xlink:href="#path-15"></use>
                    </mask>
                    <g id="path-1"></g>
                    <polygon id="Fill-13" fill="#FFFFFF" fill-rule="nonzero" mask="url(#mask-16)" points="20.5661318 12.5548689 20.1782976 11.0302864 25.6873371 9.64568447 26.0751714 11.1705291"></polygon>
                </g>
                <g id="Fill-14-Clipped">
                    <mask id="mask-18" fill="white">
                        <use xlink:href="#path-17"></use>
                    </mask>
                    <g id="path-1"></g>
                    <polygon id="Fill-14" fill="#FFFFFF" fill-rule="nonzero" mask="url(#mask-18)" points="19.4991525 24.8074165 16.5127495 19.8737563 17.8681921 19.0627078 20.8545951 23.996368"></polygon>
                </g>
                <g id="Fill-15-Clipped">
                    <mask id="mask-20" fill="white">
                        <use xlink:href="#path-19"></use>
                    </mask>
                    <g id="path-1"></g>
                    <path d="M26.6985273,16.9879019 L25.1701281,16.5823777 C25.4382637,15.5825913 25.5743089,14.5455816 25.5743089,13.4999214 C25.5743089,11.8893583 25.2573974,10.3275524 24.6320113,8.85775631 L26.0886968,8.24488252 C26.7971337,9.90944563 27.1562298,11.6775524 27.1562298,13.4999214 C27.1562298,14.6821544 27.0022561,15.8557369 26.6985273,16.9879019" id="Fill-15" fill="#FFFFFF" fill-rule="nonzero" mask="url(#mask-20)"></path>
                </g>
                <g id="Fill-16-Clipped">
                    <mask id="mask-22" fill="white">
                        <use xlink:href="#path-21"></use>
                    </mask>
                    <g id="path-1"></g>
                    <path d="M13.5781544,27 C6.09118644,27 0,20.9438738 0,13.5 C0,6.05612621 6.09118644,0 13.5781544,0 C18.3589831,0 22.6987194,2.42737864 25.18629,6.4931068 L23.8348023,7.31070874 C21.6364595,3.71787379 17.8021469,1.57281553 13.5781544,1.57281553 C6.96335217,1.57281553 1.5819209,6.92327184 1.5819209,13.5 C1.5819209,20.0767282 6.96335217,25.4271845 13.5781544,25.4271845 C14.2984557,25.4271845 15.0198117,25.3634854 15.7224482,25.2373981 L16.0032392,26.7853107 C15.2080603,26.9279126 14.3923164,27 13.5781544,27" id="Fill-16" fill="#FFFFFF" fill-rule="nonzero" mask="url(#mask-22)"></path>
                </g>
                <g id="Fill-17-Clipped">
                    <mask id="mask-24" fill="white">
                        <use xlink:href="#path-23"></use>
                    </mask>
                    <g id="path-1"></g>
                    <path d="M17.7680301,26.3446602 L17.2802712,24.8486505 C20.5271638,23.802466 23.1805725,21.4183398 24.5602712,18.3073107 L26.0077288,18.9422039 C24.4463729,22.4624272 21.443096,25.1605922 17.7680301,26.3446602" id="Fill-17" fill="#FFFFFF" fill-rule="nonzero" mask="url(#mask-24)"></path>
                </g>
                <g id="Fill-18-Clipped">
                    <mask id="mask-26" fill="white">
                        <use xlink:href="#path-25"></use>
                    </mask>
                    <g id="path-1"></g>
                    <path d="M20.2593446,20.5492544 L19.1741469,19.4050311 C20.8275179,17.8550214 21.738177,15.757934 21.738177,13.4998951 C21.738177,12.8191282 21.6532806,12.1420311 21.485597,11.4882641 L23.0184783,11.0995165 C23.218855,11.8804194 23.3200979,12.6880602 23.3200979,13.4998951 C23.3200979,16.195701 22.2330546,18.699099 20.2593446,20.5492544" id="Fill-18" fill="#FFFFFF" fill-rule="nonzero" mask="url(#mask-26)"></path>
                </g>
                <g id="Fill-19-Clipped">
                    <mask id="mask-28" fill="white">
                        <use xlink:href="#path-27"></use>
                    </mask>
                    <g id="path-1"></g>
                    <path d="M20.8444708,9.80425049 C20.0424369,8.24847379 18.7304972,6.96977476 17.1509492,6.20381359 L16.4377665,5.85779417 L18.4750169,1.73859029 L19.8945273,2.43298835 L18.5430395,5.1654932 C20.1154689,6.09528932 21.4158079,7.46468738 22.2521168,9.08652233 L20.8444708,9.80425049 Z" id="Fill-19" fill="#FFFFFF" fill-rule="nonzero" mask="url(#mask-28)"></path>
                </g>
                <g id="Fill-20-Clipped">
                    <mask id="mask-30" fill="white">
                        <use xlink:href="#path-29"></use>
                    </mask>
                    <g id="path-1"></g>
                    <path d="M13.5781544,23.1859748 C8.20621469,23.1859748 3.83615819,18.8408097 3.83615819,13.5000524 C3.83615819,8.15929515 8.20621469,3.8141301 13.5781544,3.8141301 C14.2378154,3.8141301 14.8980038,3.88045049 15.5405273,4.01099417 L15.2236158,5.55182913 C14.6852354,5.44251845 14.1315631,5.38694563 13.5781544,5.38694563 C9.07864407,5.38694563 5.4180791,9.02617864 5.4180791,13.5000524 C5.4180791,17.9736641 9.07864407,21.6131592 13.5781544,21.6131592 C14.4679849,21.6131592 15.3419962,21.471868 16.1761959,21.1934796 L16.679774,22.6845087 C15.6829002,23.0171592 14.6393597,23.1859748 13.5781544,23.1859748" id="Fill-20" fill="#FFFFFF" fill-rule="nonzero" mask="url(#mask-30)"></path>
                </g>
                <g id="Fill-21-Clipped">
                    <mask id="mask-32" fill="white">
                        <use xlink:href="#path-31"></use>
                    </mask>
                    <g id="path-1"></g>
                    <path d="M13.5781544,9.20112816 C11.193936,9.20112816 9.25423729,11.1294 9.25423729,13.4998951 C9.25423729,15.8703903 11.193936,17.7991864 13.5781544,17.7991864 C15.9623729,17.7991864 17.9020716,15.8703903 17.9020716,13.4998951 C17.9020716,11.1294 15.9623729,9.20112816 13.5781544,9.20112816 M13.5781544,19.3720019 C10.3215066,19.3720019 7.67231638,16.7377981 7.67231638,13.4998951 C7.67231638,10.2625165 10.3215066,7.62831262 13.5781544,7.62831262 C16.8348023,7.62831262 19.4839925,10.2625165 19.4839925,13.4998951 C19.4839925,16.7377981 16.8348023,19.3720019 13.5781544,19.3720019" id="Fill-21" fill="#FFFFFF" fill-rule="nonzero" mask="url(#mask-32)"></path>
                </g>
            </g>
        </g>
    </g>
</svg>