<?xml version="1.0" encoding="UTF-8"?>
<svg width="701px" height="314px" viewBox="0 0 701 314" version="1.1" xmlns="http://www.w3.org/2000/svg" xmlns:xlink="http://www.w3.org/1999/xlink">
    <!-- Generator: Sketch 47.1 (45422) - http://www.bohemiancoding.com/sketch -->
    <title>table</title>
    <desc>Created with Sketch.</desc>
    <defs>
        <linearGradient x1="50%" y1="-1.36175793e-14%" x2="50%" y2="99.4178616%" id="linearGradient-1">
            <stop stop-color="#000632" offset="0%"></stop>
            <stop stop-color="#103F8E" offset="100%"></stop>
        </linearGradient>
    </defs>
    <g id="Page-1" stroke="none" stroke-width="1" fill="none" fill-rule="evenodd">
        <g id="table">
            <rect id="Rectangle-9" fill="url(#linearGradient-1)" opacity="0.464149589" x="180" y="0" width="260" height="314" rx="10"></rect>
            <rect id="Rectangle-8" fill="#FFFFFF" opacity="0.0700000003" x="0" y="81" width="700" height="55" rx="10"></rect>
            <rect id="Rectangle-8-Copy" fill="#FFFFFF" opacity="0.0700000003" x="1" y="158" width="700" height="55" rx="10"></rect>
            <rect id="Rectangle-8-Copy-2" fill="#FFFFFF" opacity="0.0700000003" x="1" y="235" width="700" height="55" rx="10"></rect>
            <text id="仿間-VPN" font-family="PingFangTC-Medium, PingFang TC" font-size="18" font-weight="400" fill="#FFFFFF">
                <tspan x="534" y="47">仿間 </tspan>
                <tspan x="575.994" y="47" font-size="20">VPN</tspan>
            </text>
            <g id="Group-7" transform="translate(40.000000, 69.000000)" font-size="16" font-family="PingFangTC-Medium, PingFang TC" line-spacing="76" font-weight="400">
                <text id="設備-更換ip-價格" fill="#FFFFFF">
                    <tspan x="0" y="17">設備</tspan>
                    <tspan x="0" y="93">更換ip</tspan>
                    <tspan x="0" y="169">價格</tspan>
                </text>
                <text id="共享同一組ip-無限-便宜" fill="#FFF773">
                    <tspan x="223.048" y="18">共享同一組ip</tspan>
                    <tspan x="254" y="94">無限</tspan>
                    <tspan x="254" y="170">便宜</tspan>
                </text>
                <text id="限制設備數量-數量有限-貴" fill="#FFFFFF">
                    <tspan x="487" y="18">限制設備數量</tspan>
                    <tspan x="503" y="94">數量有限</tspan>
                    <tspan x="527" y="170">貴</tspan>
                </text>
            </g>
            <g id="Page-1" transform="translate(252.000000, 30.000000)" fill="#FFFFFF">
                <polygon id="Fill-8" points="76.6548711 20 71 5 73.6682194 5 77.9834712 17.3803914 78.0493615 17.3803914 82.3756325 5 85 5 79.3451289 20"></polygon>
                <path d="M88.3670201,12.9209895 L91.3468946,12.9209895 C93.3966674,12.9209895 94.5801775,11.8295037 94.5801775,9.93755234 C94.5801775,8.04581388 93.4072712,6.96454676 91.3468946,6.96454676 L88.3670201,6.96454676 L88.3670201,12.9209895 Z M91.9701363,5 C94.9288033,5 97,7.00627315 97,9.92712074 C97,12.8586128 94.8866046,14.8753176 91.8963428,14.8753176 L88.3670201,14.8753176 L88.3670201,20 L86,20 L86,5 L91.9701363,5 Z" id="Fill-9"></path>
                <polygon id="Fill-10" points="100 20 100 5 102.069635 5 109.695881 16.060262 109.777314 16.060262 109.777314 5 112 5 112 20 109.940387 20 102.31435 8.9501696 102.222686 8.9501696 102.222686 20"></polygon>
                <polygon id="Fill-11" points="14.7981412 10 14 9.05192064 16.2018588 7 17 7.94807936"></polygon>
                <polygon id="Fill-12" points="17.6750032 14 15 13.1650132 15.3251882 12 18 12.8349868"></polygon>
                <polygon id="Fill-13" points="17.3288474 11 17 9.95188322 21.6711526 9 22 10.048297"></polygon>
                <polygon id="Fill-14" points="16.7512752 21 14 16.7059092 15.2487248 16 18 20.2940908"></polygon>
                <path d="M22.6373512,15 L21.4263631,14.6753216 C21.6388135,13.8748538 21.7466054,13.0445837 21.7466054,12.2073876 C21.7466054,10.9179084 21.4955087,9.66746619 21,8.49069049 L22.1541675,8 C22.7154794,9.3327137 23,10.7483285 23,12.2073876 C23,13.1539292 22.8780029,14.0935448 22.6373512,15" id="Fill-15"></path>
                <path d="M11.321288,23 C5.07875178,23 0,18.0653786 0,12 C0,5.93462136 5.07875178,1 11.321288,1 C15.3074805,1 18.9258961,2.97786408 21,6.29067961 L19.8731471,6.95687379 C18.0401976,4.02937864 14.8431978,2.2815534 11.321288,2.2815534 C5.80595218,2.2815534 1.31898501,6.64118447 1.31898501,12 C1.31898501,17.3588155 5.80595218,21.7184466 11.321288,21.7184466 C11.9218658,21.7184466 12.523323,21.6665437 13.1091722,21.5638058 L13.343292,22.825068 C12.6802822,22.9412621 12.0001256,23 11.321288,23" id="Fill-16"></path>
                <path d="M15.391215,23 L15,21.6970745 C17.6042233,20.785917 19.7324331,18.7095007 20.839043,16 L22,16.55295 C20.747689,19.6188317 18.3388617,21.9687551 15.391215,23" id="Fill-17"></path>
                <path d="M16.7852464,18 L16,17.0313185 C17.1963752,15.7191046 17.8553259,13.9437432 17.8553259,12.0321229 C17.8553259,11.4557963 17.7938951,10.8825765 17.6725596,10.3291076 L18.7817488,10 C18.9267409,10.6611002 19,11.3448362 19,12.0321229 C19,14.3143499 18.2134181,16.4336875 16.7852464,18" id="Fill-18"></path>
                <path d="M17.7895071,10 C17.099805,8.64977737 15.9716138,7.54002405 14.6132952,6.87526406 L14,6.57496181 L15.7519158,3 L16.9726114,3.60265202 L15.8104113,5.97412981 C17.1626083,6.78107836 18.2808235,7.96954727 19,9.37710033 L17.7895071,10 Z" id="Fill-19"></path>
                <path d="M11.3435973,20 C6.74276389,20 3,16.4111502 3,12 C3,7.5888498 6.74276389,4 11.3435973,4 C11.9085684,4 12.473991,4.05477673 13.0242846,4.16259811 L12.7528637,5.43523681 C12.2917642,5.34495264 11.8175678,5.29905277 11.3435973,5.29905277 C7.48996182,5.29905277 4.35484666,8.30484438 4.35484666,12 C4.35484666,15.6949391 7.48996182,18.7009472 11.3435973,18.7009472 C12.1056986,18.7009472 12.8542513,18.584249 13.5687071,18.3543166 L14,19.5858187 C13.1462208,19.8605683 12.2524736,20 11.3435973,20" id="Fill-20"></path>
                <path d="M11,8.33928571 C8.98147321,8.33928571 7.33928571,9.98125 7.33928571,11.9997768 C7.33928571,14.0183036 8.98147321,15.6607143 11,15.6607143 C13.0185268,15.6607143 14.6607143,14.0183036 14.6607143,11.9997768 C14.6607143,9.98125 13.0185268,8.33928571 11,8.33928571 M11,17 C8.24285714,17 6,14.7569196 6,11.9997768 C6,9.24308036 8.24285714,7 11,7 C13.7571429,7 16,9.24308036 16,11.9997768 C16,14.7569196 13.7571429,17 11,17" id="Fill-21"></path>
                <text id="奧丁" font-family="PingFangTC-Medium, PingFang TC" font-size="18" font-weight="400">
                    <tspan x="32" y="19">奧丁</tspan>
                </text>
            </g>
        </g>
    </g>
</svg>